<?xml version="1.0" encoding="UTF-8"?>
<svg id="katman_2" data-name="katman 2" xmlns="http://www.w3.org/2000/svg" viewBox="0 0 311.81 113.57">
  <defs>
    <style>
      .cls-1 {
        fill: #005baa;
      }

      .cls-1, .cls-2, .cls-3, .cls-4 {
        stroke-width: 0px;
      }

      .cls-2 {
        fill-rule: evenodd;
      }

      .cls-2, .cls-3 {
        fill: #fff;
      }

      .cls-4 {
        fill: #00aeef;
      }
    </style>
  </defs>
  <g id="Layer_1" data-name="Layer 1">
    <g>
      <g>
        <rect class="cls-3" x="14.42" y="14.42" width="84.54" height="84.54" rx="7.44" ry="7.44" transform="translate(-23.48 56.69) rotate(-45)"/>
        <path class="cls-4" d="M88.96,80.26H24.43l28.97,28.97c.91.91,2.1,1.36,3.29,1.36s2.38-.45,3.29-1.36l28.97-28.97"/>
        <polygon class="cls-1" points="35.94 21.61 20.62 36.93 41.97 69.32 35.94 21.61"/>
        <polygon class="cls-1" points="20.59 36.96 7.38 50.17 32.66 73.45 20.59 36.96"/>
        <path class="cls-1" d="M56.55,2.79c-1.14.04-2.28.49-3.15,1.36l-17.42,17.42,15.73,45.9L56.55,2.79Z"/>
        <path class="cls-1" d="M4.15,53.4c-1.82,1.82-1.82,4.77,0,6.59l20.28,20.28L7.34,50.21l-3.19,3.19Z"/>
        <polygon class="cls-1" points="77.44 21.61 92.77 36.93 71.42 69.32 77.44 21.61"/>
        <polygon class="cls-1" points="92.8 36.96 106.01 50.17 80.73 73.45 92.8 36.96"/>
        <path class="cls-1" d="M56.84,2.79c1.14.04,2.28.49,3.15,1.36l17.42,17.42-15.73,45.9L56.84,2.79Z"/>
        <path class="cls-1" d="M109.24,53.4c1.82,1.82,1.82,4.77,0,6.59l-20.28,20.28,17.08-30.06,3.19,3.19Z"/>
      </g>
      <g>
        <path class="cls-2" d="M128.7,56.71c0,8.77,0,16.3-.48,20.3-.38,2.76-.86,4.86-2.77,5.24-.86.19-2.01.38-3.44.38-1.15,0-1.53.29-1.53.76,0,.67.67.95,1.91.95,1.91,0,4.39-.19,6.59-.19,2.29-.1,4.39-.1,5.44-.1,1.43,0,4.3.1,7.16.29,2.77.09,5.54.28,6.69.28,17.57,0,25.5-10.58,25.5-20.77,0-11.15-9.55-17.91-17.38-20.58,5.25-4.19,9.74-8.86,9.74-16.68,0-5.05-3.06-14.29-20.34-14.29-3.25,0-6.97.29-11.65.29-1.91,0-7.92-.29-12.99-.29-1.43,0-2.1.19-2.1.86s.57.86,1.62.86c1.34,0,2.96.1,3.72.29,3.15.67,3.91,2.19,4.11,5.43.19,3.05.19,5.72.19,20.2v16.77ZM140.16,18.02c0-1.05.19-1.43.86-1.62.95-.19,1.81-.19,3.15-.19,8.21,0,11.94,8.39,11.94,14.77,0,4.67-1.43,8.1-3.92,10.1-1.62,1.43-3.72,1.81-6.88,1.81-2.2,0-3.63-.09-4.49-.29-.38-.1-.67-.29-.67-1.05v-23.54ZM162.03,68.14c0,9.91-7.26,12.2-11.56,12.2-2.2,0-4.39-.09-6.97-1.14-3.06-1.24-3.34-2.86-3.34-9.15v-22.58c0-.48.19-.67.57-.67,1.43,0,2.39,0,4.11.1,3.72.19,5.92.86,7.93,2.29,7.26,5.05,9.26,13.05,9.26,18.96Z"/>
        <path class="cls-2" d="M217.52,59.47c.48,0,.76.19.95.67l7.64,20.2c.48,1.14-.19,2-.86,2.19-.95.1-1.34.29-1.34.86,0,.67,1.15.67,2.87.76,7.64.19,14.61.19,18.05.19s4.39-.19,4.39-.95c0-.67-.48-.76-1.24-.76-1.15,0-2.58-.1-4.01-.38-2.01-.57-4.77-1.9-8.4-10.44-6.11-14.43-21.39-53.31-23.68-58.55-.95-2.19-1.53-3.05-2.39-3.05-.96,0-1.53,1.05-2.67,3.81l-23.97,59.84c-1.91,4.76-3.72,8-8.12,8.58-.77.09-2.1.19-2.96.19-.76,0-1.14.19-1.14.76,0,.76.57.95,1.81.95,4.97,0,10.22-.29,11.27-.29,2.96,0,7.07.29,10.12.29,1.05,0,1.62-.19,1.62-.95,0-.57-.29-.76-1.43-.76h-1.43c-2.96,0-3.82-1.24-3.82-2.95,0-1.14.48-3.43,1.43-5.81l5.16-13.63c.19-.57.38-.76.86-.76h21.3ZM198.14,54.71c-.38,0-.48-.29-.38-.67l8.79-23.44c.1-.38.29-.86.57-.86s.38.48.48.86l8.59,23.54c.1.28,0,.57-.48.57h-17.57Z"/>
        <path class="cls-2" d="M244.96,53.85c0,13.82,3.63,20.87,8.5,25.25,6.97,6.29,16.14,6.57,21.2,6.57,6.21,0,13.08-1.05,19.86-6.86,8.02-6.86,9.07-18.11,9.07-28.68v-10.2c0-14.48,0-17.15.19-20.2.19-3.34.95-4.96,3.53-5.43,1.15-.19,1.72-.29,2.77-.29,1.15,0,1.72-.19,1.72-.86s-.67-.86-2.01-.86c-3.72,0-9.74.29-10.88.29-.1,0-6.11-.29-10.98-.29-1.33,0-2.01.19-2.01.86s.57.86,1.62.86,2.68.1,3.44.29c3.15.67,3.92,2.19,4.11,5.43.19,3.05.19,5.72.19,20.2v11.91c0,9.81-.29,18.39-5.54,23.63-3.82,3.81-8.98,5.15-13.18,5.15-3.25,0-7.64-.38-11.94-3.91-4.68-3.81-7.45-9.62-7.45-23.44v-13.34c0-14.48,0-17.15.19-20.2.19-3.34.95-4.96,3.53-5.43,1.15-.19,1.72-.29,2.77-.29.95,0,1.53-.19,1.53-.86s-.67-.86-2.1-.86c-3.44,0-9.45.29-11.75.29-2.87,0-8.88-.29-13.94-.29-1.43,0-2.1.19-2.1.86s.57.86,1.62.86c1.34,0,2.96.1,3.73.29,3.15.67,3.92,2.19,4.11,5.43.19,3.05.19,5.72.19,20.2v13.91Z"/>
      </g>
      <g>
        <path class="cls-2" d="M178.9,109.41c.81,0,1.37.63,1.37,1.39s-.54,1.38-1.39,1.38-1.37-.65-1.37-1.38c0-.77.57-1.39,1.39-1.39Z"/>
        <path class="cls-2" d="M161.88,109.41c.81,0,1.37.63,1.37,1.39s-.54,1.38-1.39,1.38-1.37-.65-1.37-1.38c0-.77.57-1.39,1.39-1.39Z"/>
        <path class="cls-2" d="M149.17,100.13c.26-.3.58-.57.94-.76.55-.34,1.21-.53,1.91-.53,1.4,0,3.59.88,3.59,4.35v5.97h-2.21v-5.79c0-1.52-.55-2.62-2-2.62-1.02,0-1.82.72-2.13,1.61-.08.19-.1.42-.1.75v6.05h-2.21v-14.61h2.21v5.58Z"/>
        <path class="cls-2" d="M130.38,102.72h-1.2v4.69c.32.04.73.05,1.22.05,1.77,0,3.21-.64,3.21-2.38,0-1.61-1.38-2.36-3.23-2.36ZM130.48,96.96c-.63,0-1.03.04-1.3.08v3.92h1.34c1.73,0,2.65-.91,2.65-2.04,0-1.36-.99-1.96-2.69-1.96ZM133.49,101.69c1.2.46,2.41,1.55,2.41,3.41,0,1.22-.49,2.16-1.23,2.86-.98.92-2.57,1.32-4.77,1.32-.98,0-1.94-.06-2.91-.19v-13.57c1.1-.26,2.26-.35,3.39-.35,1.75,0,2.92.3,3.79,1.02.76.56,1.23,1.43,1.23,2.56,0,1.26-.74,2.35-1.91,2.95Z"/>
        <path class="cls-2" d="M142.55,106.16c.05-.15.07-.32.07-.49v-1.45c-1.89,0-3.62.4-3.62,1.95,0,1.01.63,1.44,1.4,1.44,1.16,0,1.9-.72,2.15-1.46ZM142.8,108.2c-.62.66-1.61,1.17-2.84,1.17-2.09,0-3.17-1.49-3.17-3,0-2.49,2.19-3.78,5.79-3.81,0-.77-.22-1.99-1.96-1.97-1.02,0-1.81.28-2.65.85l-.55-1.63c1.05-.66,2.22-.97,3.46-.97,3.15,0,3.91,2.18,3.91,4.17v3.61c0,.86.05,1.69.18,2.54h-2.04l-.12-.95Z"/>
        <path class="cls-2" d="M162.48,107.48c.94,0,1.49-.19,2.31-.55l.4,1.76c-.95.46-1.97.66-3.03.66-3.04,0-5.02-2.08-5.02-5.15s2.13-5.37,5.4-5.37c.94,0,1.87.18,2.7.63l-.53,1.78c-.74-.39-1.29-.56-2.17-.56-2.05,0-3.17,1.52-3.17,3.42,0,2.11,1.34,3.38,3.11,3.38Z"/>
        <path class="cls-2" d="M178.54,109.35c-1.08,0-2.05-.25-2.98-.8l.56-1.76c.75.44,1.56.79,2.46.79,1.17,0,1.62-.55,1.62-1.21s-.36-1.06-1.62-1.54c-1.79-.65-2.71-1.67-2.71-2.94,0-1.7,1.4-3.06,3.55-3.06.95,0,1.82.21,2.62.73l-.56,1.69c-.69-.4-1.26-.67-2.1-.67-.93,0-1.36.52-1.36,1.09,0,.62.39.93,1.66,1.44,1.69.63,2.67,1.53,2.67,3.1,0,1.88-1.48,3.14-3.81,3.14Z"/>
        <path class="cls-2" d="M170.39,100.54c-1.49,0-2.22,1.26-2.42,2.39h4.59c-.04-1.06-.55-2.39-2.17-2.39ZM174.72,103.6c0,.36-.03.69-.1,1.05h-6.69c.13,2.04,1.46,2.87,3.04,2.87,1.14,0,1.81-.14,2.82-.59l.43,1.7c-1.14.52-2.22.72-3.49.72-3.08,0-4.96-2.08-4.96-5.09s1.8-5.43,4.76-5.43c3.35,0,4.18,2.97,4.18,4.77Z"/>
        <path class="cls-2" d="M195.98,100.13c.26-.3.58-.57.94-.76.55-.34,1.21-.53,1.91-.53,1.4,0,3.59.88,3.59,4.35v5.97h-2.21v-5.79c0-1.52-.55-2.62-2-2.62-1.02,0-1.82.72-2.13,1.61-.08.19-.1.42-.1.75v6.05h-2.21v-14.61h2.21v5.58Z"/>
        <path class="cls-2" d="M187.9,100.54c-1.49,0-2.22,1.26-2.42,2.39h4.59c-.05-1.06-.55-2.39-2.17-2.39ZM192.23,103.6c0,.36-.03.69-.1,1.05h-6.69c.13,2.04,1.46,2.87,3.04,2.87,1.14,0,1.81-.14,2.82-.59l.43,1.7c-1.14.52-2.22.72-3.49.72-3.08,0-4.96-2.08-4.96-5.09s1.8-5.43,4.76-5.43c3.35,0,4.18,2.97,4.18,4.77Z"/>
        <g>
          <rect class="cls-3" x="204.65" y="99.05" width="2.21" height="10.1"/>
          <path class="cls-2" d="M207.06,96.59c0,.7-.53,1.3-1.34,1.3s-1.28-.61-1.28-1.3c0-.74.53-1.32,1.32-1.32s1.3.59,1.3,1.32Z"/>
        </g>
        <path class="cls-2" d="M211.09,100.35c.57-.94,1.52-1.51,2.55-1.51.24,0,.47.04.71.07v2.11c-.27-.03-.55-.07-.82-.07-1.09,0-1.9.82-2.12,2.04-.04.25-.06.51-.06.78v5.39h-2.21v-6.87c0-1.08-.02-2.16-.1-3.24h1.99l.05,1.3Z"/>
        <g>
          <path class="cls-2" d="M223.37,103.4v-8.14h2.21v8.2c0,2.91,1.27,4.04,2.89,4.04,1.8,0,3.03-1.17,3.03-4.04v-8.2h2.21v8.08c0,4.25-2.26,6.03-5.3,6.03s-5.04-1.67-5.04-5.97Z"/>
          <path class="cls-2" d="M299.15,106.21c.13-.43.27-.9.42-1.35l1.96-5.81h2.34l-2.74,7.18c-1.25,3.3-2.12,5.03-3.36,6.13-.74.62-1.51,1.03-2.45,1.2l-.56-1.87c.63-.2,1.15-.45,1.67-.88.45-.36,1-1,1.41-1.87.03-.06.12-.25.12-.32,0-.05-.02-.15-.12-.37l-3.67-9.21h2.41l2.14,5.85c.15.41.31.88.44,1.31Z"/>
          <path class="cls-2" d="M289.34,99.05v-1.71l2.17-.68v2.39h2.5v1.79h-2.5v4.95c0,1.17.32,1.64,1.08,1.64.53,0,.74-.05,1.23-.19l.11,1.8c-.61.22-1.13.31-1.79.31-.87,0-1.59-.3-2.06-.81-.54-.6-.74-1.53-.74-2.68v-5.01h-1.49v-1.79h1.49Z"/>
          <g>
            <path class="cls-2" d="M286.87,96.59c0,.7-.53,1.31-1.34,1.31s-1.28-.62-1.28-1.31c0-.74.53-1.33,1.32-1.33s1.3.59,1.3,1.33Z"/>
            <rect class="cls-3" x="284.45" y="99.05" width="2.21" height="10.1"/>
          </g>
          <path class="cls-2" d="M279.02,109.35c-1.08,0-2.05-.25-2.98-.8l.56-1.76c.75.44,1.56.79,2.46.79,1.16,0,1.62-.55,1.62-1.21s-.36-1.06-1.62-1.54c-1.79-.65-2.71-1.67-2.71-2.94,0-1.71,1.4-3.06,3.55-3.06.95,0,1.82.21,2.62.73l-.56,1.69c-.69-.4-1.26-.67-2.1-.67-.93,0-1.36.52-1.36,1.09,0,.62.39.93,1.66,1.44,1.69.63,2.67,1.53,2.67,3.1,0,1.88-1.47,3.14-3.81,3.14Z"/>
          <path class="cls-2" d="M272.35,100.34c.57-.94,1.52-1.51,2.55-1.51.24,0,.47.04.71.07v2.11c-.27-.03-.55-.07-.82-.07-1.09,0-1.9.82-2.12,2.04-.04.25-.06.51-.06.78v5.39h-2.21v-6.86c0-1.08-.02-2.16-.09-3.24h1.99l.05,1.29Z"/>
          <path class="cls-2" d="M255.01,106.43c.18-.58.39-1.18.62-1.83l1.92-5.55h2.33l-3.96,10.1h-1.98l-3.83-10.1h2.36l1.94,5.55c.23.65.43,1.25.6,1.83Z"/>
          <path class="cls-2" d="M268.85,103.6c0,.36-.03.69-.1,1.05h-6.69c.13,2.04,1.46,2.87,3.04,2.87,1.14,0,1.81-.15,2.82-.59l.43,1.7c-1.14.52-2.22.72-3.49.72-3.08,0-4.96-2.08-4.96-5.09s1.8-5.43,4.76-5.43c3.35,0,4.18,2.97,4.18,4.77ZM264.53,100.54c-1.49,0-2.22,1.26-2.42,2.39h4.59c-.05-1.06-.55-2.39-2.17-2.39Z"/>
          <g>
            <path class="cls-2" d="M249.32,96.59c0,.7-.53,1.31-1.34,1.31s-1.28-.62-1.28-1.31c0-.74.53-1.33,1.32-1.33s1.3.59,1.3,1.33Z"/>
            <rect class="cls-3" x="246.91" y="99.05" width="2.21" height="10.1"/>
          </g>
          <path class="cls-2" d="M238.02,100.22c.62-.76,1.66-1.39,3.03-1.39s3.63.88,3.63,4.33v5.99h-2.21v-5.79c0-1.52-.55-2.64-2-2.64-1.02,0-1.84.74-2.13,1.64-.07.18-.11.48-.11.74v6.05h-2.21v-7.26c0-.95-.03-1.89-.1-2.84h2.01l.07,1.17Z"/>
        </g>
      </g>
    </g>
  </g>
</svg>